<svg width="16" height="15" viewBox="0 0 16 15" fill="none" xmlns="http://www.w3.org/2000/svg">
<path d="M15 6.9993H3.14L6.77 2.6393C6.93974 2.43508 7.0214 2.1718 6.99702 1.90738C6.97264 1.64295 6.84422 1.39904 6.64 1.2293C6.43578 1.05956 6.1725 0.977899 5.90808 1.00228C5.64365 1.02666 5.39974 1.15508 5.23 1.3593L0.23 7.3593C0.196361 7.40702 0.166279 7.45716 0.14 7.5093C0.14 7.5593 0.14 7.5893 0.0700002 7.6393C0.0246737 7.75396 0.000941121 7.87601 0 7.9993C0.000941121 8.12259 0.0246737 8.24464 0.0700002 8.3593C0.0700002 8.4093 0.0699999 8.4393 0.14 8.4893C0.166279 8.54144 0.196361 8.59158 0.23 8.6393L5.23 14.6393C5.32402 14.7522 5.44176 14.843 5.57485 14.9052C5.70793 14.9674 5.85309 14.9995 6 14.9993C6.23365 14.9998 6.46009 14.9184 6.64 14.7693C6.74126 14.6854 6.82496 14.5822 6.88631 14.4659C6.94766 14.3496 6.98546 14.2222 6.99754 14.0913C7.00961 13.9603 6.99573 13.8282 6.95669 13.7026C6.91764 13.577 6.8542 13.4603 6.77 13.3593L3.14 8.9993H15C15.2652 8.9993 15.5196 8.89394 15.7071 8.70641C15.8946 8.51887 16 8.26452 16 7.9993C16 7.73408 15.8946 7.47973 15.7071 7.29219C15.5196 7.10466 15.2652 6.9993 15 6.9993Z" fill="black"/>
</svg>
