<svg width="24" height="24" viewBox="0 0 24 24" fill="none" xmlns="http://www.w3.org/2000/svg">
<path d="M21.334 4H2.66732C2.3137 4 1.97456 4.14048 1.72451 4.39052C1.47446 4.64057 1.33398 4.97971 1.33398 5.33333V18.6667C1.33398 19.0203 1.47446 19.3594 1.72451 19.6095C1.97456 19.8595 2.3137 20 2.66732 20H21.334C21.6876 20 22.0267 19.8595 22.2768 19.6095C22.5268 19.3594 22.6673 19.0203 22.6673 18.6667V5.33333C22.6673 4.97971 22.5268 4.64057 22.2768 4.39052C22.0267 4.14048 21.6876 4 21.334 4ZM20.3073 18.6667H3.77398L8.44065 13.84L7.48065 12.9133L2.66732 17.8933V6.34667L10.954 14.5933C11.2038 14.8417 11.5417 14.9811 11.894 14.9811C12.2462 14.9811 12.5842 14.8417 12.834 14.5933L21.334 6.14V17.8067L16.4273 12.9L15.4873 13.84L20.3073 18.6667ZM3.54065 5.33333H20.254L11.894 13.6467L3.54065 5.33333Z" fill="#FF9600"/>
</svg>
