<svg width="24" height="24" viewBox="0 0 24 24" fill="none" xmlns="http://www.w3.org/2000/svg">
<path d="M20.3443 17.1563H18.6966C18.5841 17.1563 18.4786 17.2055 18.4083 17.2922C18.2443 17.4914 18.0685 17.6836 17.8833 17.8664C17.1261 18.6245 16.229 19.2286 15.2419 19.6453C14.2192 20.0773 13.1201 20.2989 12.0099 20.2969C10.8872 20.2969 9.79974 20.0766 8.77786 19.6453C7.79074 19.2286 6.89374 18.6245 6.13646 17.8664C5.37782 17.111 4.7729 16.2155 4.35521 15.2297C3.92162 14.2078 3.70365 13.1227 3.70365 12C3.70365 10.8774 3.92396 9.79222 4.35521 8.77035C4.7724 7.78363 5.3724 6.89535 6.13646 6.13363C6.90052 5.37191 7.7888 4.77191 8.77786 4.35472C9.79974 3.92347 10.8872 3.70316 12.0099 3.70316C13.1326 3.70316 14.2201 3.92113 15.2419 4.35472C16.231 4.77191 17.1193 5.37191 17.8833 6.13363C18.0685 6.31879 18.2419 6.51097 18.4083 6.70785C18.4786 6.79457 18.5865 6.84379 18.6966 6.84379H20.3443C20.4919 6.84379 20.5833 6.67972 20.5013 6.5555C18.7036 3.76175 15.5583 1.91254 11.9841 1.92191C6.36849 1.93597 1.86615 6.49457 1.9224 12.1032C1.97865 17.6227 6.47396 22.0782 12.0099 22.0782C15.5747 22.0782 18.706 20.2313 20.5013 17.4446C20.581 17.3203 20.4919 17.1563 20.3443 17.1563ZM22.4279 11.8524L19.1021 9.22738C18.9779 9.12894 18.7974 9.218 18.7974 9.37504V11.1563H11.438C11.3349 11.1563 11.2505 11.2407 11.2505 11.3438V12.6563C11.2505 12.7594 11.3349 12.8438 11.438 12.8438H18.7974V14.625C18.7974 14.7821 18.9802 14.8711 19.1021 14.7727L22.4279 12.1477C22.4503 12.1302 22.4684 12.1077 22.4809 12.0822C22.4933 12.0566 22.4998 12.0285 22.4998 12C22.4998 11.9716 22.4933 11.9435 22.4809 11.9179C22.4684 11.8923 22.4503 11.8699 22.4279 11.8524Z" fill="#FF9600"/>
</svg>
