<svg width="26" height="12" viewBox="0 0 26 12" fill="none" xmlns="http://www.w3.org/2000/svg">
<path d="M22.5257 10.2396C22.3995 10.0402 22.0956 9.96493 21.6915 10.0326C20.9975 10.1534 19.5523 10.2547 18.7473 10.2412C19.4298 9.89017 20.0658 9.45301 20.6378 8.94054C21.3778 9.36254 22.7305 9.95463 23.5528 9.22928C23.6541 9.13556 23.7408 9.03751 23.8118 8.93838C24.0349 8.62581 24.0821 8.31811 23.9363 8.13447C23.795 7.95679 23.5089 7.93783 23.1509 8.08192C22.6026 8.30674 21.4195 8.68431 20.7294 8.85766C21.0588 8.5543 21.3659 8.22548 21.6471 7.87391C21.7473 7.74823 21.8437 7.62038 21.9374 7.48983C21.965 7.45137 21.9916 7.41236 22.0187 7.37336C23.2803 7.74552 24.1687 7.64314 24.588 7.0765C24.9104 6.61821 24.8952 6.2493 24.737 6.08733C24.5869 5.93294 24.3183 5.95786 24.0187 6.1545C23.5999 6.43132 22.6617 6.97303 22.0891 7.26881C22.4309 6.75797 22.7186 6.21409 22.9483 5.64692C23.99 5.7168 24.6758 5.53153 24.9873 5.09491C25.0209 5.04724 25.0507 4.99632 25.0761 4.94269C25.2706 4.50281 25.1948 4.19079 25.0328 4.07757C24.8779 3.96922 24.6514 4.03423 24.4271 4.25037C24.1021 4.56728 23.4087 5.18158 22.9938 5.53045C23.1969 5.00823 23.3508 4.46706 23.4531 3.91505L23.4618 3.9118C23.7733 3.86792 24.5333 3.75254 24.8426 3.31917C24.8941 3.24712 24.9315 3.16857 24.9548 3.0846C25.0328 2.77853 24.9748 2.51905 24.8096 2.43888C24.6769 2.37333 24.51 2.44917 24.3638 2.64094C24.1893 2.87279 23.8372 3.32242 23.5804 3.65124L23.477 3.78396C23.5615 3.28504 23.6043 2.77799 23.6032 2.26824L23.6048 2.26716C23.8345 2.18752 24.2365 2.04397 24.4261 1.77744C24.4819 1.69998 24.5149 1.61601 24.5247 1.5288C24.5469 1.3197 24.4835 1.14906 24.3681 1.10463C24.2809 1.07105 24.185 1.11601 24.1048 1.22815C24.0929 1.24494 24.0815 1.26336 24.0696 1.2834C23.9618 1.47463 23.7132 1.92804 23.5739 2.20486C23.4407 1.93833 23.1422 1.54072 22.9743 1.38308C22.8632 1.27744 22.7738 1.26119 22.7191 1.26607C22.6655 1.27094 22.6205 1.29694 22.5886 1.34191C22.5349 1.4172 22.5273 1.5353 22.5685 1.65935C22.6628 1.95025 23.1308 2.11818 23.4401 2.22924C23.4764 2.24224 23.51 2.25415 23.5414 2.26553L23.5436 2.2677C23.5447 2.7742 23.5024 3.27312 23.4196 3.76012C23.2858 3.35763 22.971 2.79424 22.77 2.56185C22.6547 2.42642 22.5257 2.35437 22.4082 2.35871C22.3253 2.36196 22.2522 2.40204 22.2012 2.47301C22.1351 2.5651 22.114 2.70215 22.1422 2.84787C22.2132 3.23303 22.7879 3.55698 23.2083 3.79262C23.2749 3.83 23.3361 3.86521 23.3908 3.89718L23.3941 3.90043C23.2928 4.44322 23.1411 4.97085 22.9439 5.47844C22.8795 4.93619 22.5945 4.14799 22.3735 3.81754C22.2424 3.61603 22.0804 3.50227 21.919 3.49793C21.8009 3.49414 21.6953 3.54939 21.6216 3.65232C21.5523 3.75037 21.5187 3.8793 21.5252 4.02556C21.5398 4.47735 22.1677 5.00607 22.6259 5.39285C22.7218 5.47357 22.8123 5.54995 22.8881 5.6182C22.6617 6.17238 22.38 6.70055 22.0501 7.19568C22.1135 6.57379 21.9672 5.6285 21.7825 5.21571C21.6676 4.94973 21.4894 4.78342 21.2939 4.76121C21.1438 4.74442 21.0019 4.81267 20.9055 4.94864C20.847 5.0299 20.8079 5.13283 20.7917 5.24767C20.7191 5.72167 21.2576 6.41398 21.6904 6.97033C21.7901 7.09925 21.8849 7.22114 21.9607 7.32677C21.5978 7.8517 21.179 8.33761 20.7121 8.77424C20.9667 8.07001 21.0035 6.98224 20.8962 6.5375C20.8199 6.19621 20.6427 5.97249 20.4092 5.92319C20.2224 5.88419 20.036 5.96653 19.9092 6.14367C19.8697 6.19946 19.8367 6.26339 19.8123 6.33327C19.6389 6.80456 20.0398 7.66968 20.3616 8.3647C20.4493 8.55376 20.5317 8.73198 20.5934 8.88366C20.0393 9.38421 19.4206 9.81758 18.7494 10.1686C18.7597 10.1556 18.7695 10.1426 18.7792 10.1285C19.2592 9.45626 19.6183 8.29482 19.6064 7.74606C19.6059 7.32461 19.4412 7.01962 19.1655 6.9297C18.9342 6.85386 18.6768 6.95678 18.5095 7.1908C18.5008 7.2038 18.4921 7.21681 18.484 7.22981C18.1963 7.66805 18.367 8.6854 18.504 9.5023C18.5495 9.77316 18.5923 10.0288 18.6151 10.238C17.9591 10.5668 17.2548 10.8187 16.5138 10.9779C16.4975 10.9817 16.4872 10.9974 16.491 11.0137C16.4948 11.0299 16.5105 11.0397 16.5268 11.0364C17.2635 10.8777 17.9732 10.6269 18.64 10.2954C19.1947 10.8452 20.6005 12.0392 21.8074 11.4053C22.0777 11.2526 22.2928 11.0706 22.4288 10.8799C22.5983 10.6426 22.6335 10.4097 22.5257 10.2396Z" fill="#008037"/>
<path d="M2.60144 10.2298C2.72983 10.0321 3.03427 9.96006 3.43785 10.0321C4.1307 10.1605 5.57437 10.2781 6.3799 10.2737C5.70059 9.9151 5.0695 9.4709 4.50394 8.95193C3.75909 9.3658 2.39992 9.94219 1.58572 9.20817C1.48551 9.11337 1.39992 9.01423 1.33003 8.91401C1.11064 8.59928 1.06622 8.29104 1.21411 8.10903C1.35766 7.93297 1.64369 7.91726 2.00014 8.06515C2.54619 8.29592 3.72496 8.68704 4.41294 8.86797C4.08737 8.56136 3.78401 8.22874 3.50665 7.87392C3.40751 7.74716 3.31217 7.61823 3.22062 7.4866C3.19354 7.44759 3.16699 7.40859 3.14045 7.36904C1.87446 7.72766 0.987671 7.61552 0.574342 7.04401V7.04347C0.257439 6.58193 0.276399 6.21356 0.436746 6.05268C0.588968 5.90045 0.856576 5.92808 1.15452 6.12797C1.57001 6.40967 2.50177 6.96167 3.07111 7.26395C2.7347 6.74932 2.45355 6.20219 2.23037 5.63285C1.18811 5.69081 0.504461 5.49796 0.19785 5.05809C0.164264 5.00987 0.135011 4.95841 0.110634 4.90478C-0.0795083 4.4622 0.000123857 4.1518 0.163722 4.0402C0.319736 3.93349 0.54509 4.00066 0.767193 4.22005C1.08843 4.54021 1.77478 5.1621 2.18595 5.51584C1.98876 4.99146 1.84087 4.44812 1.74445 3.89557L1.73632 3.89177C1.42484 3.8441 0.666434 3.72059 0.36199 3.28397C0.311069 3.21138 0.274774 3.13229 0.252563 3.04778C0.177807 2.74117 0.23902 2.48277 0.404785 2.40368C0.538589 2.33976 0.704354 2.41777 0.84845 2.61116C1.02072 2.84464 1.36741 3.2986 1.62039 3.62958L1.72278 3.76393C1.64315 3.26393 1.60631 2.75634 1.61335 2.24659L1.61173 2.2455C1.38312 2.1637 0.982796 2.01527 0.795904 1.74712C0.74119 1.66858 0.708688 1.58461 0.70002 1.49739C0.679977 1.28775 0.745524 1.11819 0.861451 1.07486C0.949209 1.04181 1.04455 1.0884 1.1231 1.20162C1.13502 1.21787 1.14639 1.23683 1.15777 1.25687C1.2634 1.44918 1.50718 1.90531 1.64315 2.18375C1.77966 1.91885 2.08194 1.52502 2.25203 1.36901C2.36417 1.26446 2.45355 1.24929 2.50881 1.25471C2.5619 1.26012 2.60632 1.28667 2.63774 1.33163C2.69082 1.40747 2.69732 1.52611 2.65453 1.64962C2.55702 1.93943 2.08735 2.10195 1.77641 2.20975C1.74011 2.22221 1.70653 2.23413 1.67511 2.24496L1.67294 2.24659C1.6659 2.75309 1.70274 3.25255 1.7802 3.74064C1.91834 3.33977 2.23903 2.78018 2.44272 2.54995C2.56027 2.4156 2.6892 2.34518 2.80729 2.3506C2.89017 2.35439 2.96276 2.39556 3.0126 2.46761C3.07761 2.56024 3.09765 2.69729 3.06732 2.84301C2.99202 3.22709 2.41401 3.54454 1.99147 3.77585C1.9243 3.81214 1.862 3.84681 1.80729 3.87823L1.80404 3.88148C1.89938 4.42536 2.0451 4.95462 2.23632 5.46437C2.30675 4.92266 2.6009 4.13771 2.82517 3.80943C2.95897 3.60954 3.12203 3.49795 3.28346 3.49524C3.40155 3.49307 3.50665 3.54941 3.5787 3.65342C3.64749 3.75147 3.67945 3.88094 3.67133 4.0272C3.65183 4.47899 3.01802 5.00066 2.55539 5.38203C2.45843 5.46221 2.36742 5.5375 2.2905 5.60468C2.51097 6.16102 2.78671 6.69298 3.11119 7.19136C3.05486 6.56893 3.21141 5.62526 3.40047 5.21464C3.51856 4.94974 3.69896 4.7856 3.89452 4.76556C4.04457 4.75039 4.18542 4.82027 4.28076 4.95679C4.33872 5.03913 4.3761 5.14259 4.39127 5.25744C4.45844 5.73252 3.91239 6.41887 3.4736 6.9698C3.3723 7.09764 3.27588 7.21845 3.19895 7.32354C3.55594 7.85225 3.96927 8.3425 4.43135 8.78509C4.18487 8.07761 4.15996 6.98984 4.27209 6.54618C4.35226 6.20598 4.53211 5.98442 4.76614 5.93729C4.95303 5.89991 5.13884 5.98442 5.26343 6.16319C5.30243 6.21952 5.33439 6.28399 5.35823 6.35387C5.52616 6.82733 5.11608 7.68757 4.78618 8.37934C4.6968 8.56732 4.61229 8.745 4.54837 8.89505C5.09712 9.4021 5.71089 9.84251 6.37828 10.2011C6.36853 10.1876 6.35824 10.1746 6.34903 10.161C5.87665 9.48281 5.5305 8.31759 5.54837 7.76883C5.55379 7.34737 5.72172 7.04456 5.99854 6.95734C6.23039 6.88475 6.48662 6.99038 6.6513 7.22603C6.65997 7.23903 6.66864 7.25203 6.67676 7.26503C6.95954 7.70707 6.77752 8.72225 6.63126 9.53753C6.58251 9.80784 6.53646 10.063 6.51208 10.2716C7.16431 10.608 7.86529 10.8674 8.60473 11.0354C8.62098 11.0392 8.63073 11.0549 8.62694 11.0711C8.62315 11.0874 8.60744 11.0971 8.59119 11.0933C7.85608 10.9265 7.14914 10.6681 6.48608 10.329C5.92541 10.8723 4.50665 12.0505 3.30675 11.4032C3.03806 11.2477 2.82517 11.0635 2.69082 10.8712C2.52452 10.6318 2.49147 10.3983 2.60144 10.2298Z" fill="#008037"/>
<path d="M15.4127 7.67851H9.79297V1.95312H15.4127V7.67851Z" fill="#008037"/>
<path d="M10.7095 1.02043C10.4294 0.896923 10.119 0.828125 9.79291 0.828125C8.54372 0.828125 7.53125 1.83571 7.53125 3.07841C7.53125 4.3211 8.54372 5.32869 9.79291 5.32869C9.79291 5.32869 10.288 5.36824 10.8666 5.05946" fill="#008037"/>
<path d="M14.3789 1.07677C14.6888 0.917508 15.0409 0.828125 15.4131 0.828125C16.6622 0.828125 17.6747 1.83571 17.6747 3.07841C17.6747 4.3211 16.6622 5.32869 15.4131 5.32869C14.789 5.32869 14.2234 5.0768 13.8145 4.66943" fill="#008037"/>
<path d="M10.6609 3.40414C10.4583 3.06719 10.3418 2.67228 10.3418 2.25028C10.3418 1.00759 11.3543 0 12.6029 0C13.8521 0 14.8646 1.00759 14.8646 2.25028" fill="#008037"/>
<path d="M13.6146 8.12541C13.6146 8.12541 13.5767 8.1292 13.5052 8.13624C13.4337 8.14328 13.3297 8.1552 13.1964 8.16766C13.0631 8.18012 12.9001 8.18716 12.7137 8.19745C12.5268 8.20829 12.3167 8.21262 12.0859 8.21208C11.8557 8.21154 11.6065 8.20612 11.3427 8.18879C11.0788 8.17145 10.8004 8.14653 10.5133 8.09669C10.3692 8.07123 10.2235 8.04198 10.0756 7.99539C10.0014 7.97156 9.92661 7.94556 9.84969 7.90168C9.81177 7.88055 9.77168 7.85238 9.73322 7.80579C9.72401 7.79279 9.71426 7.78196 9.70667 7.76354C9.69855 7.74675 9.69151 7.73049 9.6888 7.70883C9.68717 7.69853 9.68609 7.6877 9.68555 7.67795C9.68771 7.64599 9.68663 7.66711 9.68717 7.65899L9.68771 7.6552L9.68826 7.6487L9.68988 7.64165C9.68988 7.63949 9.68988 7.63732 9.69205 7.63028C9.6953 7.6189 9.69909 7.60753 9.70397 7.59669C9.71426 7.57069 9.72293 7.56256 9.73268 7.54902C9.74243 7.53494 9.75218 7.52573 9.76193 7.51652C9.78197 7.49593 9.80093 7.48401 9.82098 7.46885C9.85998 7.44393 9.89844 7.42334 9.93636 7.40655C10.0133 7.37296 10.0891 7.34804 10.1655 7.32583C10.3177 7.28304 10.471 7.25108 10.6238 7.22507C10.9304 7.17578 11.2381 7.14653 11.5404 7.12648C11.8427 7.10535 12.1411 7.1021 12.4288 7.10156C12.7175 7.10156 12.9949 7.11186 13.2587 7.12865C13.5225 7.14382 13.7712 7.16819 13.9998 7.19745C14.457 7.25541 14.8351 7.33721 15.0886 7.43093C15.2159 7.47697 15.3113 7.52952 15.3638 7.58044C15.3909 7.6059 15.4033 7.6319 15.4088 7.64978C15.412 7.66766 15.412 7.67741 15.412 7.67741C15.412 7.67741 15.4109 7.66766 15.4061 7.65032C15.3985 7.63407 15.3844 7.61078 15.3557 7.58965C15.3004 7.54577 15.2024 7.50731 15.0756 7.47264C14.8194 7.40384 14.4418 7.35509 13.9873 7.32367C13.7598 7.3085 13.5133 7.29875 13.2522 7.29279C12.9911 7.28791 12.7154 7.29008 12.431 7.2955C12.1466 7.30146 11.8524 7.31825 11.555 7.33883C11.2581 7.36104 10.9564 7.39246 10.6601 7.4423C10.5122 7.46614 10.3654 7.49539 10.2251 7.53385C10.1547 7.55335 10.0864 7.57556 10.0247 7.60265C9.99324 7.61565 9.96507 7.63136 9.94015 7.64653C9.92986 7.65411 9.91686 7.66224 9.91144 7.66928C9.90711 7.67253 9.90332 7.67632 9.90277 7.67849C9.90115 7.68012 9.89682 7.68553 9.90115 7.67795L9.90169 7.66982L9.90061 7.67199L9.89844 7.68607V7.68932C9.89844 7.68337 9.89682 7.70666 9.89898 7.67741L9.89952 7.67416L9.89898 7.67199L9.90223 7.67686C9.9109 7.6877 9.93094 7.70612 9.95803 7.72129C10.0095 7.75271 10.0745 7.77871 10.14 7.80146C10.2722 7.84642 10.4114 7.87892 10.549 7.90655C10.8248 7.95964 11.0973 7.99756 11.3567 8.02519C11.6157 8.05227 11.8622 8.07232 12.0902 8.0864C12.3177 8.09886 12.5274 8.11024 12.7127 8.11349C12.8985 8.1162 13.0599 8.12486 13.1942 8.12378C13.3275 8.1227 13.4331 8.12432 13.5046 8.12432C13.5761 8.12486 13.6146 8.12541 13.6146 8.12541Z" fill="#008037"/>
<path d="M12.5845 9.81641L12.8706 10.3966L13.5109 10.4892L13.0477 10.941L13.1571 11.5786L12.5845 11.2774L12.0119 11.5786L12.1214 10.941L11.6582 10.4892L12.2985 10.3966L12.5845 9.81641Z" fill="#008037"/>
<path d="M14.5433 10.5859L14.6972 11.0626L15.1771 11.2057L14.7714 11.4998L14.7838 12.0004L14.3792 11.7057L13.9068 11.872L14.0623 11.3958L13.7578 10.9976L14.2589 10.9982L14.5433 10.5859Z" fill="#008037"/>
<path d="M10.6279 10.5859L10.4741 11.0626L9.99414 11.2057L10.3999 11.4998L10.3874 12.0004L10.7921 11.7057L11.2645 11.872L11.109 11.3958L11.4134 10.9976L10.9123 10.9982L10.6279 10.5859Z" fill="#008037"/>
</svg>
