<svg width="18" height="20" viewBox="0 0 18 20" fill="none" xmlns="http://www.w3.org/2000/svg">
<path d="M9.00037 0.25C6.94087 0.25 5.25038 1.9405 5.25038 4V4.75H1.54688L1.50038 5.4535L0.750375 18.9535L0.703125 19.75H17.2969L17.2504 18.9528L16.5004 5.45275L16.4531 4.75H12.7504V4C12.7504 1.9405 11.0599 0.25 9.00037 0.25ZM9.00037 1.75C9.59711 1.75 10.1694 1.98705 10.5914 2.40901C11.0133 2.83097 11.2504 3.40326 11.2504 4V4.75H6.75037V4C6.75037 3.40326 6.98743 2.83097 7.40938 2.40901C7.83134 1.98705 8.40364 1.75 9.00037 1.75ZM2.95312 6.25H5.25038V8.5H6.75037V6.25H11.2504V8.5H12.7504V6.25H15.0476L15.7039 18.25H2.29763L2.95312 6.25Z" fill="#FF9600"/>
</svg>
