<svg width="24" height="24" viewBox="0 0 24 24" fill="none" xmlns="http://www.w3.org/2000/svg">
<path d="M11.9961 16.6776V14.1406" stroke="#FF9600" stroke-width="1.5" stroke-linecap="round" stroke-linejoin="round"/>
<path fill-rule="evenodd" clip-rule="evenodd" d="M18.19 5.33008C19.88 5.33008 21.24 6.70008 21.24 8.39008V11.8301C18.78 13.2701 15.53 14.1401 11.99 14.1401C8.45 14.1401 5.21 13.2701 2.75 11.8301V8.38008C2.75 6.69008 4.12 5.33008 5.81 5.33008H18.19Z" stroke="#FF9600" stroke-width="1.5" stroke-linecap="round" stroke-linejoin="round"/>
<path d="M15.4961 5.326V4.96C15.4961 3.74 14.5061 2.75 13.2861 2.75H10.7061C9.48609 2.75 8.49609 3.74 8.49609 4.96V5.326" stroke="#FF9600" stroke-width="1.5" stroke-linecap="round" stroke-linejoin="round"/>
<path d="M2.77539 15.4824L2.96439 17.9914C3.09239 19.6824 4.50139 20.9894 6.19639 20.9894H17.7954C19.4904 20.9894 20.8994 19.6824 21.0274 17.9914L21.2164 15.4824" stroke="#FF9600" stroke-width="1.5" stroke-linecap="round" stroke-linejoin="round"/>
</svg>
