<svg width="16" height="20" viewBox="0 0 16 20" fill="none" xmlns="http://www.w3.org/2000/svg">
<path d="M6.80078 8.20039C6.80078 8.04126 6.864 7.88865 6.97652 7.77612C7.08904 7.6636 7.24165 7.60039 7.40078 7.60039H11.6008C11.7599 7.60039 11.9125 7.6636 12.025 7.77612C12.1376 7.88865 12.2008 8.04126 12.2008 8.20039C12.2008 8.35952 12.1376 8.51213 12.025 8.62465C11.9125 8.73718 11.7599 8.80039 11.6008 8.80039H7.40078C7.24165 8.80039 7.08904 8.73718 6.97652 8.62465C6.864 8.51213 6.80078 8.35952 6.80078 8.20039ZM6.80078 11.8004C6.80078 11.6413 6.864 11.4886 6.97652 11.3761C7.08904 11.2636 7.24165 11.2004 7.40078 11.2004H11.6008C11.7599 11.2004 11.9125 11.2636 12.025 11.3761C12.1376 11.4886 12.2008 11.6413 12.2008 11.8004C12.2008 11.9595 12.1376 12.1121 12.025 12.2247C11.9125 12.3372 11.7599 12.4004 11.6008 12.4004H7.40078C7.24165 12.4004 7.08904 12.3372 6.97652 12.2247C6.864 12.1121 6.80078 11.9595 6.80078 11.8004ZM6.80078 15.4004C6.80078 15.2413 6.864 15.0886 6.97652 14.9761C7.08904 14.8636 7.24165 14.8004 7.40078 14.8004H11.6008C11.7599 14.8004 11.9125 14.8636 12.025 14.9761C12.1376 15.0886 12.2008 15.2413 12.2008 15.4004C12.2008 15.5595 12.1376 15.7121 12.025 15.8247C11.9125 15.9372 11.7599 16.0004 11.6008 16.0004H7.40078C7.24165 16.0004 7.08904 15.9372 6.97652 15.8247C6.864 15.7121 6.80078 15.5595 6.80078 15.4004ZM5.60078 8.20039C5.60078 8.43908 5.50596 8.668 5.33718 8.83679C5.1684 9.00557 4.93948 9.10039 4.70078 9.10039C4.46209 9.10039 4.23317 9.00557 4.06439 8.83679C3.8956 8.668 3.80078 8.43908 3.80078 8.20039C3.80078 7.96169 3.8956 7.73278 4.06439 7.56399C4.23317 7.39521 4.46209 7.30039 4.70078 7.30039C4.93948 7.30039 5.1684 7.39521 5.33718 7.56399C5.50596 7.73278 5.60078 7.96169 5.60078 8.20039ZM5.60078 11.8004C5.60078 12.0391 5.50596 12.268 5.33718 12.4368C5.1684 12.6056 4.93948 12.7004 4.70078 12.7004C4.46209 12.7004 4.23317 12.6056 4.06439 12.4368C3.8956 12.268 3.80078 12.0391 3.80078 11.8004C3.80078 11.5617 3.8956 11.3328 4.06439 11.164C4.23317 10.9952 4.46209 10.9004 4.70078 10.9004C4.93948 10.9004 5.1684 10.9952 5.33718 11.164C5.50596 11.3328 5.60078 11.5617 5.60078 11.8004ZM4.70078 16.3004C4.93948 16.3004 5.1684 16.2056 5.33718 16.0368C5.50596 15.868 5.60078 15.6391 5.60078 15.4004C5.60078 15.1617 5.50596 14.9328 5.33718 14.764C5.1684 14.5952 4.93948 14.5004 4.70078 14.5004C4.46209 14.5004 4.23317 14.5952 4.06439 14.764C3.8956 14.9328 3.80078 15.1617 3.80078 15.4004C3.80078 15.6391 3.8956 15.868 4.06439 16.0368C4.23317 16.2056 4.46209 16.3004 4.70078 16.3004ZM4.50278 1.60039C4.62691 1.2493 4.85688 0.945345 5.16099 0.730424C5.46511 0.515504 5.82839 0.400196 6.20078 0.400391H9.80078C10.1732 0.400196 10.5365 0.515504 10.8406 0.730424C11.1447 0.945345 11.3747 1.2493 11.4988 1.60039H13.4008C13.8782 1.60039 14.336 1.79003 14.6736 2.1276C15.0111 2.46516 15.2008 2.923 15.2008 3.40039V17.8004C15.2008 18.2778 15.0111 18.7356 14.6736 19.0732C14.336 19.4107 13.8782 19.6004 13.4008 19.6004H2.60078C2.12339 19.6004 1.66555 19.4107 1.32799 19.0732C0.990423 18.7356 0.800781 18.2778 0.800781 17.8004V3.40039C0.800781 2.923 0.990423 2.46516 1.32799 2.1276C1.66555 1.79003 2.12339 1.60039 2.60078 1.60039H4.50278ZM6.20078 1.60039C6.04165 1.60039 5.88904 1.6636 5.77652 1.77613C5.664 1.88865 5.60078 2.04126 5.60078 2.20039C5.60078 2.35952 5.664 2.51213 5.77652 2.62465C5.88904 2.73718 6.04165 2.80039 6.20078 2.80039H9.80078C9.95991 2.80039 10.1125 2.73718 10.225 2.62465C10.3376 2.51213 10.4008 2.35952 10.4008 2.20039C10.4008 2.04126 10.3376 1.88865 10.225 1.77613C10.1125 1.6636 9.95991 1.60039 9.80078 1.60039H6.20078ZM4.50278 2.80039H2.60078C2.44165 2.80039 2.28904 2.8636 2.17652 2.97613C2.064 3.08865 2.00078 3.24126 2.00078 3.40039V17.8004C2.00078 17.9595 2.064 18.1121 2.17652 18.2247C2.28904 18.3372 2.44165 18.4004 2.60078 18.4004H13.4008C13.5599 18.4004 13.7125 18.3372 13.825 18.2247C13.9376 18.1121 14.0008 17.9595 14.0008 17.8004V3.40039C14.0008 3.24126 13.9376 3.08865 13.825 2.97613C13.7125 2.8636 13.5599 2.80039 13.4008 2.80039H11.4988C11.3747 3.15148 11.1447 3.45544 10.8406 3.67036C10.5365 3.88528 10.1732 4.00059 9.80078 4.00039H6.20078C5.82839 4.00059 5.46511 3.88528 5.16099 3.67036C4.85688 3.45544 4.62691 3.15148 4.50278 2.80039Z" fill="#FF9600"/>
</svg>
