<svg width="24" height="24" viewBox="0 0 24 24" fill="none" xmlns="http://www.w3.org/2000/svg">
<path opacity="0.01" fill-rule="evenodd" clip-rule="evenodd" d="M0 0V24H24V0H0Z" fill="#1C8FF8" fill-opacity="0.338428"/>
<path fill-rule="evenodd" clip-rule="evenodd" d="M11.7505 15.046C13.2944 15.046 14.546 13.7944 14.546 12.2505C14.546 10.7066 13.2944 9.45508 11.7505 9.45508C10.2066 9.45508 8.95508 10.7066 8.95508 12.2505C8.95508 13.7944 10.2066 15.046 11.7505 15.046Z" stroke="#FF9600" stroke-width="1.5" stroke-linecap="round" stroke-linejoin="round"/>
<path fill-rule="evenodd" clip-rule="evenodd" d="M18.6455 15.0455C18.3917 15.6205 18.5134 16.2921 18.953 16.7414L19.0089 16.7973C19.3588 17.1468 19.5554 17.6212 19.5554 18.1158C19.5554 18.6104 19.3588 19.0848 19.0089 19.4343C18.6593 19.7843 18.185 19.9809 17.6903 19.9809C17.1957 19.9809 16.7214 19.7843 16.3718 19.4343L16.3159 19.3784C15.8666 18.9389 15.195 18.8171 14.62 19.0709C14.0567 19.3123 13.6906 19.8652 13.6882 20.478V20.6364C13.6882 21.6656 12.8538 22.5 11.8245 22.5C10.7953 22.5 9.96091 21.6656 9.96091 20.6364V20.5525C9.94615 19.9214 9.54706 19.3634 8.95455 19.1455C8.37953 18.8917 7.70795 19.0134 7.25864 19.453L7.20273 19.5089C6.85317 19.8588 6.37883 20.0554 5.8842 20.0554C5.38958 20.0554 4.91524 19.8588 4.56568 19.5089C4.21573 19.1593 4.0191 18.685 4.0191 18.1903C4.0191 17.6957 4.21573 17.2214 4.56568 16.8718L4.62159 16.8159C5.0611 16.3666 5.18287 15.695 4.92909 15.12C4.68769 14.5567 4.13485 14.1906 3.52205 14.1882H3.36364C2.33438 14.1882 1.5 13.3538 1.5 12.3245C1.5 11.2953 2.33438 10.4609 3.36364 10.4609H3.4475C4.07865 10.4461 4.63663 10.0471 4.85455 9.45455C5.10832 8.87953 4.98655 8.20795 4.54705 7.75864L4.49114 7.70273C4.14119 7.35317 3.94456 6.87883 3.94456 6.3842C3.94456 5.88958 4.14119 5.41524 4.49114 5.06568C4.8407 4.71573 5.31503 4.5191 5.80966 4.5191C6.30429 4.5191 6.77862 4.71573 7.12818 5.06568L7.18409 5.12159C7.6334 5.5611 8.30498 5.68287 8.88 5.42909H8.95455C9.5178 5.18769 9.88392 4.63485 9.88636 4.02205V3.86364C9.88636 2.83438 10.7207 2 11.75 2C12.7793 2 13.6136 2.83438 13.6136 3.86364V3.9475C13.6161 4.5603 13.9822 5.11314 14.5455 5.35455C15.1205 5.60832 15.7921 5.48655 16.2414 5.04705L16.2973 4.99114C16.6468 4.64119 17.1212 4.44456 17.6158 4.44456C18.1104 4.44456 18.5848 4.64119 18.9343 4.99114C19.2843 5.3407 19.4809 5.81503 19.4809 6.30966C19.4809 6.80429 19.2843 7.27862 18.9343 7.62818L18.8784 7.68409C18.4389 8.1334 18.3171 8.80499 18.5709 9.38V9.45455C18.8123 10.0178 19.3652 10.3839 19.978 10.3864H20.1364C21.1656 10.3864 22 11.2207 22 12.25C22 13.2793 21.1656 14.1136 20.1364 14.1136H20.0525C19.4397 14.1161 18.8869 14.4822 18.6455 15.0455Z" stroke="#FF9600" stroke-width="1.5" stroke-linecap="round" stroke-linejoin="round"/>
</svg>
